<mxfile host="app.diagrams.net" modified="2021-03-28T10:08:56.237Z" agent="5.0 (Windows NT 10.0; Win64; x64) AppleWebKit/537.36 (KHTML, like Gecko) Chrome/89.0.4389.90 Safari/537.36" etag="-rsWcM0UZzfi4GOYX7fg" version="14.2.9" type="github" pages="2">
  <diagram id="133Yh-YMF7GgDeh_F8BC" name="Page-1">
    <mxGraphModel dx="782" dy="741" grid="1" gridSize="10" guides="1" tooltips="1" connect="1" arrows="1" fold="1" page="1" pageScale="1" pageWidth="827" pageHeight="1169" math="0" shadow="0">
      <root>
        <mxCell id="0" />
        <mxCell id="1" parent="0" />
        <mxCell id="zMGVB6kWtQ56Az9PAXaY-9" style="edgeStyle=orthogonalEdgeStyle;rounded=0;orthogonalLoop=1;jettySize=auto;html=1;entryX=-0.024;entryY=0.051;entryDx=0;entryDy=0;entryPerimeter=0;" parent="1" source="zMGVB6kWtQ56Az9PAXaY-2" target="zMGVB6kWtQ56Az9PAXaY-5" edge="1">
          <mxGeometry relative="1" as="geometry" />
        </mxCell>
        <mxCell id="zMGVB6kWtQ56Az9PAXaY-38" style="edgeStyle=orthogonalEdgeStyle;rounded=0;orthogonalLoop=1;jettySize=auto;html=1;entryX=0;entryY=0;entryDx=0;entryDy=32;entryPerimeter=0;exitX=0.5;exitY=0;exitDx=0;exitDy=0;" parent="1" source="zMGVB6kWtQ56Az9PAXaY-5" target="zMGVB6kWtQ56Az9PAXaY-37" edge="1">
          <mxGeometry relative="1" as="geometry" />
        </mxCell>
        <mxCell id="zMGVB6kWtQ56Az9PAXaY-43" style="edgeStyle=orthogonalEdgeStyle;rounded=0;orthogonalLoop=1;jettySize=auto;html=1;entryX=0.997;entryY=0.143;entryDx=0;entryDy=0;entryPerimeter=0;" parent="1" source="zMGVB6kWtQ56Az9PAXaY-2" target="zMGVB6kWtQ56Az9PAXaY-39" edge="1">
          <mxGeometry relative="1" as="geometry" />
        </mxCell>
        <mxCell id="zMGVB6kWtQ56Az9PAXaY-48" style="edgeStyle=orthogonalEdgeStyle;rounded=0;orthogonalLoop=1;jettySize=auto;html=1;exitX=0.284;exitY=1.003;exitDx=0;exitDy=0;exitPerimeter=0;entryX=0.394;entryY=0.001;entryDx=0;entryDy=0;entryPerimeter=0;" parent="1" source="zMGVB6kWtQ56Az9PAXaY-42" target="zMGVB6kWtQ56Az9PAXaY-44" edge="1">
          <mxGeometry relative="1" as="geometry">
            <mxPoint x="90" y="340" as="targetPoint" />
            <Array as="points">
              <mxPoint x="135" y="330" />
              <mxPoint x="93" y="330" />
            </Array>
          </mxGeometry>
        </mxCell>
        <mxCell id="zMGVB6kWtQ56Az9PAXaY-2" value="LUDO GAME" style="html=1;" parent="1" vertex="1">
          <mxGeometry x="340" y="50" width="110" height="50" as="geometry" />
        </mxCell>
        <mxCell id="zMGVB6kWtQ56Az9PAXaY-5" value="CLIENT" style="swimlane;fontStyle=1;align=center;verticalAlign=top;childLayout=stackLayout;horizontal=1;startSize=26;horizontalStack=0;resizeParent=1;resizeParentMax=0;resizeLast=0;collapsible=1;marginBottom=0;" parent="1" vertex="1">
          <mxGeometry x="550" y="80" width="160" height="240" as="geometry" />
        </mxCell>
        <mxCell id="zMGVB6kWtQ56Az9PAXaY-6" value="+ state: boolean&#xa;+ message: string" style="text;strokeColor=none;fillColor=none;align=left;verticalAlign=top;spacingLeft=4;spacingRight=4;overflow=hidden;rotatable=0;points=[[0,0.5],[1,0.5]];portConstraint=eastwest;" parent="zMGVB6kWtQ56Az9PAXaY-5" vertex="1">
          <mxGeometry y="26" width="160" height="44" as="geometry" />
        </mxCell>
        <mxCell id="zMGVB6kWtQ56Az9PAXaY-7" value="" style="line;strokeWidth=1;fillColor=none;align=left;verticalAlign=middle;spacingTop=-1;spacingLeft=3;spacingRight=3;rotatable=0;labelPosition=right;points=[];portConstraint=eastwest;" parent="zMGVB6kWtQ56Az9PAXaY-5" vertex="1">
          <mxGeometry y="70" width="160" height="8" as="geometry" />
        </mxCell>
        <mxCell id="zMGVB6kWtQ56Az9PAXaY-8" value="+ enterQueue()&#xa;+ enterGame()&#xa;+ endGameWinner()&#xa;+ checkState()&#xa;+ turn()&#xa;+ rollDice()Â &#xa;+ whosTurn()&#xa;+ movePawn()&#xa;+ drawBoard()&#xa;+ init()" style="text;strokeColor=none;fillColor=none;align=left;verticalAlign=top;spacingLeft=4;spacingRight=4;overflow=hidden;rotatable=0;points=[[0,0.5],[1,0.5]];portConstraint=eastwest;spacing=4;" parent="zMGVB6kWtQ56Az9PAXaY-5" vertex="1">
          <mxGeometry y="78" width="160" height="162" as="geometry" />
        </mxCell>
        <mxCell id="zMGVB6kWtQ56Az9PAXaY-10" value="BOARD" style="swimlane;fontStyle=1;align=center;verticalAlign=top;childLayout=stackLayout;horizontal=1;startSize=26;horizontalStack=0;resizeParent=1;resizeParentMax=0;resizeLast=0;collapsible=1;marginBottom=0;" parent="1" vertex="1">
          <mxGeometry x="550" y="380" width="160" height="86" as="geometry" />
        </mxCell>
        <mxCell id="zMGVB6kWtQ56Az9PAXaY-11" value="+ board: image" style="text;strokeColor=none;fillColor=none;align=left;verticalAlign=top;spacingLeft=4;spacingRight=4;overflow=hidden;rotatable=0;points=[[0,0.5],[1,0.5]];portConstraint=eastwest;" parent="zMGVB6kWtQ56Az9PAXaY-10" vertex="1">
          <mxGeometry y="26" width="160" height="26" as="geometry" />
        </mxCell>
        <mxCell id="zMGVB6kWtQ56Az9PAXaY-12" value="" style="line;strokeWidth=1;fillColor=none;align=left;verticalAlign=middle;spacingTop=-1;spacingLeft=3;spacingRight=3;rotatable=0;labelPosition=right;points=[];portConstraint=eastwest;" parent="zMGVB6kWtQ56Az9PAXaY-10" vertex="1">
          <mxGeometry y="52" width="160" height="8" as="geometry" />
        </mxCell>
        <mxCell id="zMGVB6kWtQ56Az9PAXaY-13" value="+ pygame.image.load()" style="text;strokeColor=none;fillColor=none;align=left;verticalAlign=top;spacingLeft=4;spacingRight=4;overflow=hidden;rotatable=0;points=[[0,0.5],[1,0.5]];portConstraint=eastwest;" parent="zMGVB6kWtQ56Az9PAXaY-10" vertex="1">
          <mxGeometry y="60" width="160" height="26" as="geometry" />
        </mxCell>
        <mxCell id="zMGVB6kWtQ56Az9PAXaY-15" style="edgeStyle=orthogonalEdgeStyle;rounded=0;orthogonalLoop=1;jettySize=auto;html=1;exitX=0.505;exitY=0.997;exitDx=0;exitDy=0;exitPerimeter=0;" parent="1" source="zMGVB6kWtQ56Az9PAXaY-8" target="zMGVB6kWtQ56Az9PAXaY-10" edge="1">
          <mxGeometry relative="1" as="geometry">
            <Array as="points">
              <mxPoint x="631" y="325" />
              <mxPoint x="630" y="325" />
            </Array>
          </mxGeometry>
        </mxCell>
        <mxCell id="zMGVB6kWtQ56Az9PAXaY-16" value="COORDINATES" style="swimlane;fontStyle=1;align=center;verticalAlign=top;childLayout=stackLayout;horizontal=1;startSize=26;horizontalStack=0;resizeParent=1;resizeParentMax=0;resizeLast=0;collapsible=1;marginBottom=0;" parent="1" vertex="1">
          <mxGeometry x="550" y="499" width="160" height="210" as="geometry" />
        </mxCell>
        <mxCell id="zMGVB6kWtQ56Az9PAXaY-17" value="+ redInitials: []&#xa;+ blueInitials: []&#xa;+ greenInitials: []&#xa;+ yellowInitials: []&#xa;+ mainBoardInitials: []&#xa;+ redFinals: []&#xa;+ blueFinals: []&#xa;+ greenFinals: []&#xa;+ yellowFinals: []" style="text;strokeColor=none;fillColor=none;align=left;verticalAlign=top;spacingLeft=4;spacingRight=4;overflow=hidden;rotatable=0;points=[[0,0.5],[1,0.5]];portConstraint=eastwest;" parent="zMGVB6kWtQ56Az9PAXaY-16" vertex="1">
          <mxGeometry y="26" width="160" height="144" as="geometry" />
        </mxCell>
        <mxCell id="zMGVB6kWtQ56Az9PAXaY-18" value="" style="line;strokeWidth=1;fillColor=none;align=left;verticalAlign=middle;spacingTop=-1;spacingLeft=3;spacingRight=3;rotatable=0;labelPosition=right;points=[];portConstraint=eastwest;" parent="zMGVB6kWtQ56Az9PAXaY-16" vertex="1">
          <mxGeometry y="170" width="160" height="8" as="geometry" />
        </mxCell>
        <mxCell id="zMGVB6kWtQ56Az9PAXaY-19" value="+ setCords()" style="text;strokeColor=none;fillColor=none;align=left;verticalAlign=top;spacingLeft=4;spacingRight=4;overflow=hidden;rotatable=0;points=[[0,0.5],[1,0.5]];portConstraint=eastwest;" parent="zMGVB6kWtQ56Az9PAXaY-16" vertex="1">
          <mxGeometry y="178" width="160" height="32" as="geometry" />
        </mxCell>
        <mxCell id="zMGVB6kWtQ56Az9PAXaY-20" style="edgeStyle=orthogonalEdgeStyle;rounded=0;orthogonalLoop=1;jettySize=auto;html=1;exitX=1;exitY=0.426;exitDx=0;exitDy=0;exitPerimeter=0;" parent="1" source="zMGVB6kWtQ56Az9PAXaY-8" target="zMGVB6kWtQ56Az9PAXaY-17" edge="1">
          <mxGeometry relative="1" as="geometry" />
        </mxCell>
        <mxCell id="zMGVB6kWtQ56Az9PAXaY-21" value="DICE" style="swimlane;fontStyle=1;align=center;verticalAlign=top;childLayout=stackLayout;horizontal=1;startSize=26;horizontalStack=0;resizeParent=1;resizeParentMax=0;resizeLast=0;collapsible=1;marginBottom=0;" parent="1" vertex="1">
          <mxGeometry x="330" y="157" width="160" height="86" as="geometry" />
        </mxCell>
        <mxCell id="zMGVB6kWtQ56Az9PAXaY-22" value="+ dice: image" style="text;strokeColor=none;fillColor=none;align=left;verticalAlign=top;spacingLeft=4;spacingRight=4;overflow=hidden;rotatable=0;points=[[0,0.5],[1,0.5]];portConstraint=eastwest;" parent="zMGVB6kWtQ56Az9PAXaY-21" vertex="1">
          <mxGeometry y="26" width="160" height="26" as="geometry" />
        </mxCell>
        <mxCell id="zMGVB6kWtQ56Az9PAXaY-23" value="" style="line;strokeWidth=1;fillColor=none;align=left;verticalAlign=middle;spacingTop=-1;spacingLeft=3;spacingRight=3;rotatable=0;labelPosition=right;points=[];portConstraint=eastwest;" parent="zMGVB6kWtQ56Az9PAXaY-21" vertex="1">
          <mxGeometry y="52" width="160" height="8" as="geometry" />
        </mxCell>
        <mxCell id="zMGVB6kWtQ56Az9PAXaY-24" value="+ drawDice(number, color)" style="text;strokeColor=none;fillColor=none;align=left;verticalAlign=top;spacingLeft=4;spacingRight=4;overflow=hidden;rotatable=0;points=[[0,0.5],[1,0.5]];portConstraint=eastwest;" parent="zMGVB6kWtQ56Az9PAXaY-21" vertex="1">
          <mxGeometry y="60" width="160" height="26" as="geometry" />
        </mxCell>
        <mxCell id="zMGVB6kWtQ56Az9PAXaY-25" style="edgeStyle=orthogonalEdgeStyle;rounded=0;orthogonalLoop=1;jettySize=auto;html=1;exitX=-0.012;exitY=0.358;exitDx=0;exitDy=0;exitPerimeter=0;" parent="1" source="zMGVB6kWtQ56Az9PAXaY-8" target="zMGVB6kWtQ56Az9PAXaY-21" edge="1">
          <mxGeometry relative="1" as="geometry" />
        </mxCell>
        <mxCell id="zMGVB6kWtQ56Az9PAXaY-26" value="PAWN" style="swimlane;fontStyle=1;align=center;verticalAlign=top;childLayout=stackLayout;horizontal=1;startSize=26;horizontalStack=0;resizeParent=1;resizeParentMax=0;resizeLast=0;collapsible=1;marginBottom=0;" parent="1" vertex="1">
          <mxGeometry x="360" y="580" width="160" height="180" as="geometry" />
        </mxCell>
        <mxCell id="zMGVB6kWtQ56Az9PAXaY-27" value="+ redPawn: image&#xa;+ bluePawn: image&#xa;+ greenPawn: image&#xa;+ yellowPawn: image" style="text;strokeColor=none;fillColor=none;align=left;verticalAlign=top;spacingLeft=4;spacingRight=4;overflow=hidden;rotatable=0;points=[[0,0.5],[1,0.5]];portConstraint=eastwest;" parent="zMGVB6kWtQ56Az9PAXaY-26" vertex="1">
          <mxGeometry y="26" width="160" height="74" as="geometry" />
        </mxCell>
        <mxCell id="zMGVB6kWtQ56Az9PAXaY-28" value="" style="line;strokeWidth=1;fillColor=none;align=left;verticalAlign=middle;spacingTop=-1;spacingLeft=3;spacingRight=3;rotatable=0;labelPosition=right;points=[];portConstraint=eastwest;" parent="zMGVB6kWtQ56Az9PAXaY-26" vertex="1">
          <mxGeometry y="100" width="160" height="8" as="geometry" />
        </mxCell>
        <mxCell id="zMGVB6kWtQ56Az9PAXaY-29" value="+ drawRed(x, y, size)&#xa;+ drawBlue(x, y, size)&#xa;+ drawGreen(x, y, size)&#xa;+ drawYellow(x, y, size)" style="text;strokeColor=none;fillColor=none;align=left;verticalAlign=top;spacingLeft=4;spacingRight=4;overflow=hidden;rotatable=0;points=[[0,0.5],[1,0.5]];portConstraint=eastwest;" parent="zMGVB6kWtQ56Az9PAXaY-26" vertex="1">
          <mxGeometry y="108" width="160" height="72" as="geometry" />
        </mxCell>
        <mxCell id="zMGVB6kWtQ56Az9PAXaY-30" style="edgeStyle=orthogonalEdgeStyle;rounded=0;orthogonalLoop=1;jettySize=auto;html=1;exitX=-0.019;exitY=0.944;exitDx=0;exitDy=0;exitPerimeter=0;" parent="1" source="zMGVB6kWtQ56Az9PAXaY-8" target="zMGVB6kWtQ56Az9PAXaY-27" edge="1">
          <mxGeometry relative="1" as="geometry" />
        </mxCell>
        <mxCell id="zMGVB6kWtQ56Az9PAXaY-31" value="STATE" style="swimlane;fontStyle=1;align=center;verticalAlign=top;childLayout=stackLayout;horizontal=1;startSize=26;horizontalStack=0;resizeParent=1;resizeParentMax=0;resizeLast=0;collapsible=1;marginBottom=0;" parent="1" vertex="1">
          <mxGeometry x="300" y="310" width="200" height="142" as="geometry" />
        </mxCell>
        <mxCell id="zMGVB6kWtQ56Az9PAXaY-32" value="+ redState: []&#xa;+ blueState: []&#xa;+ greenState: []&#xa;+ yellowState: []" style="text;strokeColor=none;fillColor=none;align=left;verticalAlign=top;spacingLeft=4;spacingRight=4;overflow=hidden;rotatable=0;points=[[0,0.5],[1,0.5]];portConstraint=eastwest;" parent="zMGVB6kWtQ56Az9PAXaY-31" vertex="1">
          <mxGeometry y="26" width="200" height="74" as="geometry" />
        </mxCell>
        <mxCell id="zMGVB6kWtQ56Az9PAXaY-33" value="" style="line;strokeWidth=1;fillColor=none;align=left;verticalAlign=middle;spacingTop=-1;spacingLeft=3;spacingRight=3;rotatable=0;labelPosition=right;points=[];portConstraint=eastwest;" parent="zMGVB6kWtQ56Az9PAXaY-31" vertex="1">
          <mxGeometry y="100" width="200" height="8" as="geometry" />
        </mxCell>
        <mxCell id="zMGVB6kWtQ56Az9PAXaY-34" value="+ updatePosition(color, pawn, x, y)" style="text;strokeColor=none;fillColor=none;align=left;verticalAlign=top;spacingLeft=4;spacingRight=4;overflow=hidden;rotatable=0;points=[[0,0.5],[1,0.5]];portConstraint=eastwest;" parent="zMGVB6kWtQ56Az9PAXaY-31" vertex="1">
          <mxGeometry y="108" width="200" height="34" as="geometry" />
        </mxCell>
        <mxCell id="zMGVB6kWtQ56Az9PAXaY-36" style="edgeStyle=orthogonalEdgeStyle;rounded=0;orthogonalLoop=1;jettySize=auto;html=1;entryX=0.835;entryY=0.007;entryDx=0;entryDy=0;entryPerimeter=0;exitX=-0.019;exitY=0.667;exitDx=0;exitDy=0;exitPerimeter=0;" parent="1" source="zMGVB6kWtQ56Az9PAXaY-8" target="zMGVB6kWtQ56Az9PAXaY-31" edge="1">
          <mxGeometry relative="1" as="geometry" />
        </mxCell>
        <mxCell id="zMGVB6kWtQ56Az9PAXaY-37" value="IMAGES" style="shape=folder;fontStyle=1;spacingTop=10;tabWidth=40;tabHeight=14;tabPosition=left;html=1;" parent="1" vertex="1">
          <mxGeometry x="730" y="20" width="70" height="50" as="geometry" />
        </mxCell>
        <mxCell id="zMGVB6kWtQ56Az9PAXaY-39" value="SERVER" style="swimlane;fontStyle=1;align=center;verticalAlign=top;childLayout=stackLayout;horizontal=1;startSize=26;horizontalStack=0;resizeParent=1;resizeParentMax=0;resizeLast=0;collapsible=1;marginBottom=0;" parent="1" vertex="1">
          <mxGeometry x="90" y="60" width="160" height="250" as="geometry" />
        </mxCell>
        <mxCell id="zMGVB6kWtQ56Az9PAXaY-40" value="+ host: string&#xa;+ port: integerÂ &#xa;+ mutex: threadÂ &#xa;+ connectedUsers: []&#xa;+ userQueue: Queue&#xa;+ gameId: integer&#xa;+ tcp: socket" style="text;strokeColor=none;fillColor=none;align=left;verticalAlign=top;spacingLeft=4;spacingRight=4;overflow=hidden;rotatable=0;points=[[0,0.5],[1,0.5]];portConstraint=eastwest;" parent="zMGVB6kWtQ56Az9PAXaY-39" vertex="1">
          <mxGeometry y="26" width="160" height="114" as="geometry" />
        </mxCell>
        <mxCell id="zMGVB6kWtQ56Az9PAXaY-41" value="" style="line;strokeWidth=1;fillColor=none;align=left;verticalAlign=middle;spacingTop=-1;spacingLeft=3;spacingRight=3;rotatable=0;labelPosition=right;points=[];portConstraint=eastwest;" parent="zMGVB6kWtQ56Az9PAXaY-39" vertex="1">
          <mxGeometry y="140" width="160" height="8" as="geometry" />
        </mxCell>
        <mxCell id="zMGVB6kWtQ56Az9PAXaY-42" value="+ checkGame(gameId)&#xa;+ getId()&#xa;+ endGame()&#xa;+ startGame()&#xa;+ connectUser()&#xa;+ createGame()Â &#xa;" style="text;strokeColor=none;fillColor=none;align=left;verticalAlign=top;spacingLeft=4;spacingRight=4;overflow=hidden;rotatable=0;points=[[0,0.5],[1,0.5]];portConstraint=eastwest;" parent="zMGVB6kWtQ56Az9PAXaY-39" vertex="1">
          <mxGeometry y="148" width="160" height="102" as="geometry" />
        </mxCell>
        <mxCell id="zMGVB6kWtQ56Az9PAXaY-44" value="GAME" style="swimlane;fontStyle=1;align=center;verticalAlign=top;childLayout=stackLayout;horizontal=1;startSize=26;horizontalStack=0;resizeParent=1;resizeParentMax=0;resizeLast=0;collapsible=1;marginBottom=0;" parent="1" vertex="1">
          <mxGeometry x="30" y="342" width="160" height="290" as="geometry" />
        </mxCell>
        <mxCell id="zMGVB6kWtQ56Az9PAXaY-45" value="+ cords: Coordiantes&#xa;+ diceValue: integer&#xa;+ turn: string&#xa;+ players: []&#xa;+ state: []&#xa;+ winner: string&#xa;" style="text;strokeColor=none;fillColor=none;align=left;verticalAlign=top;spacingLeft=4;spacingRight=4;overflow=hidden;rotatable=0;points=[[0,0.5],[1,0.5]];portConstraint=eastwest;" parent="zMGVB6kWtQ56Az9PAXaY-44" vertex="1">
          <mxGeometry y="26" width="160" height="104" as="geometry" />
        </mxCell>
        <mxCell id="zMGVB6kWtQ56Az9PAXaY-46" value="" style="line;strokeWidth=1;fillColor=none;align=left;verticalAlign=middle;spacingTop=-1;spacingLeft=3;spacingRight=3;rotatable=0;labelPosition=right;points=[];portConstraint=eastwest;" parent="zMGVB6kWtQ56Az9PAXaY-44" vertex="1">
          <mxGeometry y="130" width="160" height="8" as="geometry" />
        </mxCell>
        <mxCell id="zMGVB6kWtQ56Az9PAXaY-47" value="+ victory(player)&#xa;+ checkIfWin()&#xa;+ checkCollision(players[])Â &#xa;+ movePawn(player, x, y)&#xa;+ nextPlayer()&#xa;+ dice()Â &#xa;+ closeGame|()Â &#xa;+ userQuit(player)&#xa;Â &#xa;&#xa;" style="text;strokeColor=none;fillColor=none;align=left;verticalAlign=top;spacingLeft=4;spacingRight=4;overflow=hidden;rotatable=0;points=[[0,0.5],[1,0.5]];portConstraint=eastwest;" parent="zMGVB6kWtQ56Az9PAXaY-44" vertex="1">
          <mxGeometry y="138" width="160" height="152" as="geometry" />
        </mxCell>
        <mxCell id="zMGVB6kWtQ56Az9PAXaY-49" value="MOVES" style="swimlane;fontStyle=1;align=center;verticalAlign=top;childLayout=stackLayout;horizontal=1;startSize=26;horizontalStack=0;resizeParent=1;resizeParentMax=0;resizeLast=0;collapsible=1;marginBottom=0;" parent="1" vertex="1">
          <mxGeometry x="30" y="660" width="200" height="190" as="geometry" />
        </mxCell>
        <mxCell id="zMGVB6kWtQ56Az9PAXaY-50" value="+ redStart: integer&#xa;+ redFinal: integer&#xa;+ blueStart: integer&#xa;+ blueFinal: integer&#xa;+ greenStart: integer&#xa;+ greenFinal: integer&#xa;+ yellowStart: integer&#xa;+ yellowFinal: integer" style="text;strokeColor=none;fillColor=none;align=left;verticalAlign=top;spacingLeft=4;spacingRight=4;overflow=hidden;rotatable=0;points=[[0,0.5],[1,0.5]];portConstraint=eastwest;" parent="zMGVB6kWtQ56Az9PAXaY-49" vertex="1">
          <mxGeometry y="26" width="200" height="124" as="geometry" />
        </mxCell>
        <mxCell id="zMGVB6kWtQ56Az9PAXaY-51" value="" style="line;strokeWidth=1;fillColor=none;align=left;verticalAlign=middle;spacingTop=-1;spacingLeft=3;spacingRight=3;rotatable=0;labelPosition=right;points=[];portConstraint=eastwest;" parent="zMGVB6kWtQ56Az9PAXaY-49" vertex="1">
          <mxGeometry y="150" width="200" height="8" as="geometry" />
        </mxCell>
        <mxCell id="zMGVB6kWtQ56Az9PAXaY-52" value="+ movePawn(color, player, coords)" style="text;strokeColor=none;fillColor=none;align=left;verticalAlign=top;spacingLeft=4;spacingRight=4;overflow=hidden;rotatable=0;points=[[0,0.5],[1,0.5]];portConstraint=eastwest;" parent="zMGVB6kWtQ56Az9PAXaY-49" vertex="1">
          <mxGeometry y="158" width="200" height="32" as="geometry" />
        </mxCell>
        <mxCell id="zMGVB6kWtQ56Az9PAXaY-53" style="edgeStyle=orthogonalEdgeStyle;rounded=0;orthogonalLoop=1;jettySize=auto;html=1;entryX=0.945;entryY=0.005;entryDx=0;entryDy=0;entryPerimeter=0;" parent="1" source="zMGVB6kWtQ56Az9PAXaY-42" target="zMGVB6kWtQ56Az9PAXaY-49" edge="1">
          <mxGeometry relative="1" as="geometry">
            <Array as="points">
              <mxPoint x="219" y="340" />
              <mxPoint x="219" y="340" />
            </Array>
          </mxGeometry>
        </mxCell>
        <mxCell id="zMGVB6kWtQ56Az9PAXaY-54" value="STATE" style="swimlane;fontStyle=1;align=center;verticalAlign=top;childLayout=stackLayout;horizontal=1;startSize=26;horizontalStack=0;resizeParent=1;resizeParentMax=0;resizeLast=0;collapsible=1;marginBottom=0;" parent="1" vertex="1">
          <mxGeometry x="60" y="890" width="200" height="130" as="geometry" />
        </mxCell>
        <mxCell id="zMGVB6kWtQ56Az9PAXaY-55" value="+ redState: []&#xa;+ blueState: []&#xa;+ greenState: []&#xa;+ yellowState: []" style="text;strokeColor=none;fillColor=none;align=left;verticalAlign=top;spacingLeft=4;spacingRight=4;overflow=hidden;rotatable=0;points=[[0,0.5],[1,0.5]];portConstraint=eastwest;" parent="zMGVB6kWtQ56Az9PAXaY-54" vertex="1">
          <mxGeometry y="26" width="200" height="64" as="geometry" />
        </mxCell>
        <mxCell id="zMGVB6kWtQ56Az9PAXaY-56" value="" style="line;strokeWidth=1;fillColor=none;align=left;verticalAlign=middle;spacingTop=-1;spacingLeft=3;spacingRight=3;rotatable=0;labelPosition=right;points=[];portConstraint=eastwest;" parent="zMGVB6kWtQ56Az9PAXaY-54" vertex="1">
          <mxGeometry y="90" width="200" height="8" as="geometry" />
        </mxCell>
        <mxCell id="zMGVB6kWtQ56Az9PAXaY-57" value="+ updatePosition(color, pawn, x, y)" style="text;strokeColor=none;fillColor=none;align=left;verticalAlign=top;spacingLeft=4;spacingRight=4;overflow=hidden;rotatable=0;points=[[0,0.5],[1,0.5]];portConstraint=eastwest;" parent="zMGVB6kWtQ56Az9PAXaY-54" vertex="1">
          <mxGeometry y="98" width="200" height="32" as="geometry" />
        </mxCell>
        <mxCell id="zMGVB6kWtQ56Az9PAXaY-58" style="edgeStyle=orthogonalEdgeStyle;rounded=0;orthogonalLoop=1;jettySize=auto;html=1;exitX=0.985;exitY=1.004;exitDx=0;exitDy=0;exitPerimeter=0;" parent="1" source="zMGVB6kWtQ56Az9PAXaY-42" edge="1">
          <mxGeometry relative="1" as="geometry">
            <mxPoint x="260" y="250" as="sourcePoint" />
            <mxPoint x="240" y="889" as="targetPoint" />
            <Array as="points">
              <mxPoint x="250" y="310" />
              <mxPoint x="250" y="850" />
              <mxPoint x="240" y="850" />
            </Array>
          </mxGeometry>
        </mxCell>
        <mxCell id="zMGVB6kWtQ56Az9PAXaY-60" value="USER" style="swimlane;fontStyle=1;align=center;verticalAlign=top;childLayout=stackLayout;horizontal=1;startSize=26;horizontalStack=0;resizeParent=1;resizeParentMax=0;resizeLast=0;collapsible=1;marginBottom=0;" parent="1" vertex="1">
          <mxGeometry x="290" y="466" width="160" height="86" as="geometry" />
        </mxCell>
        <mxCell id="zMGVB6kWtQ56Az9PAXaY-61" value="+ newUser: []" style="text;strokeColor=none;fillColor=none;align=left;verticalAlign=top;spacingLeft=4;spacingRight=4;overflow=hidden;rotatable=0;points=[[0,0.5],[1,0.5]];portConstraint=eastwest;" parent="zMGVB6kWtQ56Az9PAXaY-60" vertex="1">
          <mxGeometry y="26" width="160" height="26" as="geometry" />
        </mxCell>
        <mxCell id="zMGVB6kWtQ56Az9PAXaY-62" value="" style="line;strokeWidth=1;fillColor=none;align=left;verticalAlign=middle;spacingTop=-1;spacingLeft=3;spacingRight=3;rotatable=0;labelPosition=right;points=[];portConstraint=eastwest;" parent="zMGVB6kWtQ56Az9PAXaY-60" vertex="1">
          <mxGeometry y="52" width="160" height="8" as="geometry" />
        </mxCell>
        <mxCell id="zMGVB6kWtQ56Az9PAXaY-63" value="+ initcializeNewUser()" style="text;strokeColor=none;fillColor=none;align=left;verticalAlign=top;spacingLeft=4;spacingRight=4;overflow=hidden;rotatable=0;points=[[0,0.5],[1,0.5]];portConstraint=eastwest;" parent="zMGVB6kWtQ56Az9PAXaY-60" vertex="1">
          <mxGeometry y="60" width="160" height="26" as="geometry" />
        </mxCell>
        <mxCell id="zMGVB6kWtQ56Az9PAXaY-64" style="edgeStyle=orthogonalEdgeStyle;rounded=0;orthogonalLoop=1;jettySize=auto;html=1;entryX=-0.008;entryY=0.141;entryDx=0;entryDy=0;entryPerimeter=0;" parent="1" source="zMGVB6kWtQ56Az9PAXaY-42" target="zMGVB6kWtQ56Az9PAXaY-60" edge="1">
          <mxGeometry relative="1" as="geometry">
            <mxPoint x="280" y="480" as="targetPoint" />
            <Array as="points">
              <mxPoint x="270" y="259" />
              <mxPoint x="270" y="478" />
            </Array>
          </mxGeometry>
        </mxCell>
      </root>
    </mxGraphModel>
  </diagram>
  <diagram id="RN8dZFjSaBzZoym4Jbny" name="Page-2">
    <mxGraphModel dx="1564" dy="1482" grid="1" gridSize="10" guides="1" tooltips="1" connect="1" arrows="1" fold="1" page="1" pageScale="1" pageWidth="1500" pageHeight="2500" math="0" shadow="0">
      <root>
        <mxCell id="FZpkYArJlPVMsmosyw7K-0" />
        <mxCell id="FZpkYArJlPVMsmosyw7K-1" parent="FZpkYArJlPVMsmosyw7K-0" />
        <mxCell id="FZpkYArJlPVMsmosyw7K-4" style="edgeStyle=orthogonalEdgeStyle;rounded=0;orthogonalLoop=1;jettySize=auto;html=1;" edge="1" parent="FZpkYArJlPVMsmosyw7K-1" source="FZpkYArJlPVMsmosyw7K-2" target="FZpkYArJlPVMsmosyw7K-3">
          <mxGeometry relative="1" as="geometry" />
        </mxCell>
        <mxCell id="FZpkYArJlPVMsmosyw7K-2" value="PLAYER ENTERS A GAME" style="rounded=0;whiteSpace=wrap;html=1;" vertex="1" parent="FZpkYArJlPVMsmosyw7K-1">
          <mxGeometry x="450" y="50" width="120" height="60" as="geometry" />
        </mxCell>
        <mxCell id="FZpkYArJlPVMsmosyw7K-5" style="edgeStyle=orthogonalEdgeStyle;rounded=0;orthogonalLoop=1;jettySize=auto;html=1;" edge="1" parent="FZpkYArJlPVMsmosyw7K-1" source="FZpkYArJlPVMsmosyw7K-3">
          <mxGeometry relative="1" as="geometry">
            <mxPoint x="570" y="80" as="targetPoint" />
            <Array as="points">
              <mxPoint x="590" y="240" />
              <mxPoint x="590" y="80" />
              <mxPoint x="570" y="80" />
            </Array>
          </mxGeometry>
        </mxCell>
        <mxCell id="FZpkYArJlPVMsmosyw7K-8" style="edgeStyle=orthogonalEdgeStyle;rounded=0;orthogonalLoop=1;jettySize=auto;html=1;exitX=0.5;exitY=1;exitDx=0;exitDy=0;" edge="1" parent="FZpkYArJlPVMsmosyw7K-1" source="FZpkYArJlPVMsmosyw7K-3" target="FZpkYArJlPVMsmosyw7K-7">
          <mxGeometry relative="1" as="geometry" />
        </mxCell>
        <mxCell id="FZpkYArJlPVMsmosyw7K-3" value="WAITING FOR OTHER PLAYERS" style="ellipse;whiteSpace=wrap;html=1;aspect=fixed;" vertex="1" parent="FZpkYArJlPVMsmosyw7K-1">
          <mxGeometry x="450" y="180" width="120" height="120" as="geometry" />
        </mxCell>
        <mxCell id="FZpkYArJlPVMsmosyw7K-10" style="edgeStyle=orthogonalEdgeStyle;rounded=0;orthogonalLoop=1;jettySize=auto;html=1;" edge="1" parent="FZpkYArJlPVMsmosyw7K-1" source="FZpkYArJlPVMsmosyw7K-7" target="FZpkYArJlPVMsmosyw7K-9">
          <mxGeometry relative="1" as="geometry" />
        </mxCell>
        <mxCell id="FZpkYArJlPVMsmosyw7K-7" value="BTN START CLICKED" style="rounded=1;whiteSpace=wrap;html=1;" vertex="1" parent="FZpkYArJlPVMsmosyw7K-1">
          <mxGeometry x="450" y="360" width="120" height="60" as="geometry" />
        </mxCell>
        <mxCell id="FZpkYArJlPVMsmosyw7K-9" value="HAVE WE GOT AT LEAST 2 PALYERS?" style="rhombus;whiteSpace=wrap;html=1;" vertex="1" parent="FZpkYArJlPVMsmosyw7K-1">
          <mxGeometry x="450" y="510" width="120" height="140" as="geometry" />
        </mxCell>
        <mxCell id="FZpkYArJlPVMsmosyw7K-11" value="" style="endArrow=classic;html=1;entryX=0.991;entryY=0.598;entryDx=0;entryDy=0;entryPerimeter=0;rounded=0;" edge="1" parent="FZpkYArJlPVMsmosyw7K-1" target="FZpkYArJlPVMsmosyw7K-3">
          <mxGeometry relative="1" as="geometry">
            <mxPoint x="570" y="579.5" as="sourcePoint" />
            <mxPoint x="670" y="579.5" as="targetPoint" />
            <Array as="points">
              <mxPoint x="720" y="580" />
              <mxPoint x="720" y="252" />
            </Array>
          </mxGeometry>
        </mxCell>
        <mxCell id="FZpkYArJlPVMsmosyw7K-12" value="NO" style="edgeLabel;resizable=0;html=1;align=center;verticalAlign=middle;" connectable="0" vertex="1" parent="FZpkYArJlPVMsmosyw7K-11">
          <mxGeometry relative="1" as="geometry" />
        </mxCell>
        <mxCell id="FZpkYArJlPVMsmosyw7K-19" style="edgeStyle=orthogonalEdgeStyle;rounded=0;orthogonalLoop=1;jettySize=auto;html=1;entryX=0.5;entryY=0;entryDx=0;entryDy=0;" edge="1" parent="FZpkYArJlPVMsmosyw7K-1" source="FZpkYArJlPVMsmosyw7K-14" target="FZpkYArJlPVMsmosyw7K-18">
          <mxGeometry relative="1" as="geometry" />
        </mxCell>
        <mxCell id="FZpkYArJlPVMsmosyw7K-14" value="THE GAME HAS STARTED" style="rounded=0;whiteSpace=wrap;html=1;" vertex="1" parent="FZpkYArJlPVMsmosyw7K-1">
          <mxGeometry x="450" y="720" width="120" height="60" as="geometry" />
        </mxCell>
        <mxCell id="FZpkYArJlPVMsmosyw7K-16" value="" style="endArrow=classic;html=1;exitX=0.5;exitY=1;exitDx=0;exitDy=0;" edge="1" parent="FZpkYArJlPVMsmosyw7K-1" source="FZpkYArJlPVMsmosyw7K-9" target="FZpkYArJlPVMsmosyw7K-14">
          <mxGeometry relative="1" as="geometry">
            <mxPoint x="500" y="680" as="sourcePoint" />
            <mxPoint x="600" y="680" as="targetPoint" />
          </mxGeometry>
        </mxCell>
        <mxCell id="FZpkYArJlPVMsmosyw7K-17" value="YES" style="edgeLabel;resizable=0;html=1;align=center;verticalAlign=middle;" connectable="0" vertex="1" parent="FZpkYArJlPVMsmosyw7K-16">
          <mxGeometry relative="1" as="geometry" />
        </mxCell>
        <mxCell id="FZpkYArJlPVMsmosyw7K-24" style="edgeStyle=orthogonalEdgeStyle;rounded=0;orthogonalLoop=1;jettySize=auto;html=1;" edge="1" parent="FZpkYArJlPVMsmosyw7K-1" source="FZpkYArJlPVMsmosyw7K-18" target="FZpkYArJlPVMsmosyw7K-20">
          <mxGeometry relative="1" as="geometry" />
        </mxCell>
        <mxCell id="FZpkYArJlPVMsmosyw7K-18" value="PLAYERS IN CONNECTED ORDER CLICK A DICE" style="rounded=0;whiteSpace=wrap;html=1;" vertex="1" parent="FZpkYArJlPVMsmosyw7K-1">
          <mxGeometry x="450" y="820" width="120" height="60" as="geometry" />
        </mxCell>
        <mxCell id="FZpkYArJlPVMsmosyw7K-20" value="6 ON DICE?" style="rhombus;whiteSpace=wrap;html=1;" vertex="1" parent="FZpkYArJlPVMsmosyw7K-1">
          <mxGeometry x="470" y="940" width="80" height="80" as="geometry" />
        </mxCell>
        <mxCell id="FZpkYArJlPVMsmosyw7K-25" value="" style="endArrow=classic;html=1;entryX=1;entryY=0.5;entryDx=0;entryDy=0;rounded=0;" edge="1" parent="FZpkYArJlPVMsmosyw7K-1" target="FZpkYArJlPVMsmosyw7K-18">
          <mxGeometry relative="1" as="geometry">
            <mxPoint x="550" y="979.66" as="sourcePoint" />
            <mxPoint x="650" y="979.66" as="targetPoint" />
            <Array as="points">
              <mxPoint x="620" y="980" />
              <mxPoint x="620" y="850" />
            </Array>
          </mxGeometry>
        </mxCell>
        <mxCell id="FZpkYArJlPVMsmosyw7K-26" value="NO" style="edgeLabel;resizable=0;html=1;align=center;verticalAlign=middle;" connectable="0" vertex="1" parent="FZpkYArJlPVMsmosyw7K-25">
          <mxGeometry relative="1" as="geometry" />
        </mxCell>
        <mxCell id="FZpkYArJlPVMsmosyw7K-27" value="" style="endArrow=classic;html=1;exitX=0.5;exitY=1;exitDx=0;exitDy=0;" edge="1" parent="FZpkYArJlPVMsmosyw7K-1" source="FZpkYArJlPVMsmosyw7K-20">
          <mxGeometry relative="1" as="geometry">
            <mxPoint x="500" y="1040" as="sourcePoint" />
            <mxPoint x="510" y="1100" as="targetPoint" />
          </mxGeometry>
        </mxCell>
        <mxCell id="FZpkYArJlPVMsmosyw7K-28" value="YES" style="edgeLabel;resizable=0;html=1;align=center;verticalAlign=middle;" connectable="0" vertex="1" parent="FZpkYArJlPVMsmosyw7K-27">
          <mxGeometry relative="1" as="geometry" />
        </mxCell>
        <mxCell id="FZpkYArJlPVMsmosyw7K-31" style="edgeStyle=orthogonalEdgeStyle;rounded=0;orthogonalLoop=1;jettySize=auto;html=1;" edge="1" parent="FZpkYArJlPVMsmosyw7K-1" source="FZpkYArJlPVMsmosyw7K-29" target="FZpkYArJlPVMsmosyw7K-30">
          <mxGeometry relative="1" as="geometry" />
        </mxCell>
        <mxCell id="FZpkYArJlPVMsmosyw7K-29" value="PLAYER CHOOSES HIS PAWN TO MAKE A MOVE" style="rounded=0;whiteSpace=wrap;html=1;" vertex="1" parent="FZpkYArJlPVMsmosyw7K-1">
          <mxGeometry x="450" y="1100" width="120" height="50" as="geometry" />
        </mxCell>
        <mxCell id="FZpkYArJlPVMsmosyw7K-33" style="edgeStyle=orthogonalEdgeStyle;rounded=0;orthogonalLoop=1;jettySize=auto;html=1;" edge="1" parent="FZpkYArJlPVMsmosyw7K-1" source="FZpkYArJlPVMsmosyw7K-30" target="FZpkYArJlPVMsmosyw7K-32">
          <mxGeometry relative="1" as="geometry" />
        </mxCell>
        <mxCell id="FZpkYArJlPVMsmosyw7K-30" value="ROLL A DICE" style="rounded=0;whiteSpace=wrap;html=1;" vertex="1" parent="FZpkYArJlPVMsmosyw7K-1">
          <mxGeometry x="450" y="1190" width="120" height="60" as="geometry" />
        </mxCell>
        <mxCell id="FZpkYArJlPVMsmosyw7K-32" value="6 ON DICE?" style="rhombus;whiteSpace=wrap;html=1;" vertex="1" parent="FZpkYArJlPVMsmosyw7K-1">
          <mxGeometry x="470" y="1290" width="80" height="80" as="geometry" />
        </mxCell>
        <mxCell id="FZpkYArJlPVMsmosyw7K-34" value="" style="endArrow=classic;html=1;" edge="1" parent="FZpkYArJlPVMsmosyw7K-1">
          <mxGeometry relative="1" as="geometry">
            <mxPoint x="550" y="1329.58" as="sourcePoint" />
            <mxPoint x="650" y="1329.58" as="targetPoint" />
          </mxGeometry>
        </mxCell>
        <mxCell id="FZpkYArJlPVMsmosyw7K-35" value="NO" style="edgeLabel;resizable=0;html=1;align=center;verticalAlign=middle;" connectable="0" vertex="1" parent="FZpkYArJlPVMsmosyw7K-34">
          <mxGeometry relative="1" as="geometry" />
        </mxCell>
        <mxCell id="FZpkYArJlPVMsmosyw7K-45" style="edgeStyle=orthogonalEdgeStyle;rounded=0;orthogonalLoop=1;jettySize=auto;html=1;exitX=0.5;exitY=1;exitDx=0;exitDy=0;" edge="1" parent="FZpkYArJlPVMsmosyw7K-1" source="FZpkYArJlPVMsmosyw7K-38" target="FZpkYArJlPVMsmosyw7K-44">
          <mxGeometry relative="1" as="geometry" />
        </mxCell>
        <mxCell id="FZpkYArJlPVMsmosyw7K-38" value="PAWN MOVES APPROPRIATELY TO DICE 1-5 OR MORE THAN 6 FROM MEMORY&amp;nbsp;" style="rounded=0;whiteSpace=wrap;html=1;" vertex="1" parent="FZpkYArJlPVMsmosyw7K-1">
          <mxGeometry x="650" y="1300" width="160" height="60" as="geometry" />
        </mxCell>
        <mxCell id="FZpkYArJlPVMsmosyw7K-43" style="edgeStyle=orthogonalEdgeStyle;rounded=0;orthogonalLoop=1;jettySize=auto;html=1;entryX=0;entryY=0.5;entryDx=0;entryDy=0;exitX=0;exitY=0.5;exitDx=0;exitDy=0;" edge="1" parent="FZpkYArJlPVMsmosyw7K-1" source="FZpkYArJlPVMsmosyw7K-39" target="FZpkYArJlPVMsmosyw7K-30">
          <mxGeometry relative="1" as="geometry" />
        </mxCell>
        <mxCell id="FZpkYArJlPVMsmosyw7K-39" value="SAVE NUMBER FROM DICE IN MEMORY" style="rounded=0;whiteSpace=wrap;html=1;" vertex="1" parent="FZpkYArJlPVMsmosyw7K-1">
          <mxGeometry x="280" y="1300" width="120" height="60" as="geometry" />
        </mxCell>
        <mxCell id="FZpkYArJlPVMsmosyw7K-40" value="" style="endArrow=classic;html=1;exitX=0;exitY=0.5;exitDx=0;exitDy=0;entryX=1;entryY=0.5;entryDx=0;entryDy=0;" edge="1" parent="FZpkYArJlPVMsmosyw7K-1" source="FZpkYArJlPVMsmosyw7K-32" target="FZpkYArJlPVMsmosyw7K-39">
          <mxGeometry relative="1" as="geometry">
            <mxPoint x="490" y="1330" as="sourcePoint" />
            <mxPoint x="590" y="1330" as="targetPoint" />
          </mxGeometry>
        </mxCell>
        <mxCell id="FZpkYArJlPVMsmosyw7K-41" value="YES" style="edgeLabel;resizable=0;html=1;align=center;verticalAlign=middle;" connectable="0" vertex="1" parent="FZpkYArJlPVMsmosyw7K-40">
          <mxGeometry relative="1" as="geometry" />
        </mxCell>
        <mxCell id="FZpkYArJlPVMsmosyw7K-49" style="edgeStyle=orthogonalEdgeStyle;rounded=0;orthogonalLoop=1;jettySize=auto;html=1;" edge="1" parent="FZpkYArJlPVMsmosyw7K-1" source="FZpkYArJlPVMsmosyw7K-44" target="FZpkYArJlPVMsmosyw7K-48">
          <mxGeometry relative="1" as="geometry" />
        </mxCell>
        <mxCell id="FZpkYArJlPVMsmosyw7K-44" value="TURN CHANGES TO NEXT PLAYER" style="rounded=0;whiteSpace=wrap;html=1;" vertex="1" parent="FZpkYArJlPVMsmosyw7K-1">
          <mxGeometry x="670" y="1410" width="120" height="60" as="geometry" />
        </mxCell>
        <mxCell id="FZpkYArJlPVMsmosyw7K-53" style="edgeStyle=orthogonalEdgeStyle;rounded=0;orthogonalLoop=1;jettySize=auto;html=1;exitX=1;exitY=0.5;exitDx=0;exitDy=0;" edge="1" parent="FZpkYArJlPVMsmosyw7K-1" source="FZpkYArJlPVMsmosyw7K-48" target="FZpkYArJlPVMsmosyw7K-52">
          <mxGeometry relative="1" as="geometry" />
        </mxCell>
        <mxCell id="FZpkYArJlPVMsmosyw7K-54" style="edgeStyle=orthogonalEdgeStyle;rounded=0;orthogonalLoop=1;jettySize=auto;html=1;exitX=0;exitY=0.5;exitDx=0;exitDy=0;" edge="1" parent="FZpkYArJlPVMsmosyw7K-1" source="FZpkYArJlPVMsmosyw7K-48" target="FZpkYArJlPVMsmosyw7K-51">
          <mxGeometry relative="1" as="geometry" />
        </mxCell>
        <mxCell id="FZpkYArJlPVMsmosyw7K-48" value="ROLL A DICE" style="rounded=0;whiteSpace=wrap;html=1;" vertex="1" parent="FZpkYArJlPVMsmosyw7K-1">
          <mxGeometry x="670" y="1500" width="120" height="60" as="geometry" />
        </mxCell>
        <mxCell id="FZpkYArJlPVMsmosyw7K-68" style="edgeStyle=orthogonalEdgeStyle;rounded=0;orthogonalLoop=1;jettySize=auto;html=1;" edge="1" parent="FZpkYArJlPVMsmosyw7K-1" source="FZpkYArJlPVMsmosyw7K-51" target="FZpkYArJlPVMsmosyw7K-67">
          <mxGeometry relative="1" as="geometry" />
        </mxCell>
        <mxCell id="FZpkYArJlPVMsmosyw7K-51" value="1 - 5 ON DICE" style="rounded=0;whiteSpace=wrap;html=1;" vertex="1" parent="FZpkYArJlPVMsmosyw7K-1">
          <mxGeometry x="580" y="1610" width="120" height="60" as="geometry" />
        </mxCell>
        <mxCell id="FZpkYArJlPVMsmosyw7K-52" value="6 ON DICE" style="rounded=0;whiteSpace=wrap;html=1;" vertex="1" parent="FZpkYArJlPVMsmosyw7K-1">
          <mxGeometry x="760" y="1610" width="120" height="60" as="geometry" />
        </mxCell>
        <mxCell id="FZpkYArJlPVMsmosyw7K-55" value="HAVE ANY PAWN ON BOARD?" style="rhombus;whiteSpace=wrap;html=1;" vertex="1" parent="FZpkYArJlPVMsmosyw7K-1">
          <mxGeometry x="580" y="1850" width="120" height="120" as="geometry" />
        </mxCell>
        <mxCell id="FZpkYArJlPVMsmosyw7K-57" value="" style="endArrow=classic;html=1;entryX=0;entryY=0.5;entryDx=0;entryDy=0;exitX=0;exitY=0.5;exitDx=0;exitDy=0;rounded=0;" edge="1" parent="FZpkYArJlPVMsmosyw7K-1" source="FZpkYArJlPVMsmosyw7K-55" target="FZpkYArJlPVMsmosyw7K-44">
          <mxGeometry relative="1" as="geometry">
            <mxPoint x="420" y="1740" as="sourcePoint" />
            <mxPoint x="520" y="1740" as="targetPoint" />
            <Array as="points">
              <mxPoint x="530" y="1910" />
              <mxPoint x="530" y="1440" />
            </Array>
          </mxGeometry>
        </mxCell>
        <mxCell id="FZpkYArJlPVMsmosyw7K-58" value="NO" style="edgeLabel;resizable=0;html=1;align=center;verticalAlign=middle;" connectable="0" vertex="1" parent="FZpkYArJlPVMsmosyw7K-57">
          <mxGeometry relative="1" as="geometry" />
        </mxCell>
        <mxCell id="FZpkYArJlPVMsmosyw7K-63" style="edgeStyle=orthogonalEdgeStyle;rounded=0;orthogonalLoop=1;jettySize=auto;html=1;entryX=1;entryY=0.25;entryDx=0;entryDy=0;" edge="1" parent="FZpkYArJlPVMsmosyw7K-1" source="FZpkYArJlPVMsmosyw7K-60" target="FZpkYArJlPVMsmosyw7K-48">
          <mxGeometry relative="1" as="geometry">
            <Array as="points">
              <mxPoint x="1020" y="1515" />
            </Array>
          </mxGeometry>
        </mxCell>
        <mxCell id="FZpkYArJlPVMsmosyw7K-60" value="SAVE NUMBER FROM DICE IN MEMORY" style="rounded=0;whiteSpace=wrap;html=1;" vertex="1" parent="FZpkYArJlPVMsmosyw7K-1">
          <mxGeometry x="960" y="1620" width="120" height="60" as="geometry" />
        </mxCell>
        <mxCell id="FZpkYArJlPVMsmosyw7K-61" value="" style="endArrow=classic;html=1;exitX=1;exitY=0.5;exitDx=0;exitDy=0;" edge="1" parent="FZpkYArJlPVMsmosyw7K-1" source="FZpkYArJlPVMsmosyw7K-52">
          <mxGeometry relative="1" as="geometry">
            <mxPoint x="1020" y="1630" as="sourcePoint" />
            <mxPoint x="960" y="1640" as="targetPoint" />
          </mxGeometry>
        </mxCell>
        <mxCell id="FZpkYArJlPVMsmosyw7K-62" value="YES" style="edgeLabel;resizable=0;html=1;align=center;verticalAlign=middle;" connectable="0" vertex="1" parent="FZpkYArJlPVMsmosyw7K-61">
          <mxGeometry relative="1" as="geometry" />
        </mxCell>
        <mxCell id="FZpkYArJlPVMsmosyw7K-82" style="edgeStyle=orthogonalEdgeStyle;rounded=0;orthogonalLoop=1;jettySize=auto;html=1;" edge="1" parent="FZpkYArJlPVMsmosyw7K-1" source="FZpkYArJlPVMsmosyw7K-64" target="FZpkYArJlPVMsmosyw7K-81">
          <mxGeometry relative="1" as="geometry" />
        </mxCell>
        <mxCell id="FZpkYArJlPVMsmosyw7K-64" value="PAWN MOVES APPROPRIATELY TO DICE 1-5 OR MORE THAN 6 FROM MEMORY&amp;nbsp;" style="rounded=0;whiteSpace=wrap;html=1;" vertex="1" parent="FZpkYArJlPVMsmosyw7K-1">
          <mxGeometry x="950" y="1750" width="160" height="60" as="geometry" />
        </mxCell>
        <mxCell id="FZpkYArJlPVMsmosyw7K-79" style="edgeStyle=orthogonalEdgeStyle;rounded=0;orthogonalLoop=1;jettySize=auto;html=1;entryX=0;entryY=0.25;entryDx=0;entryDy=0;" edge="1" parent="FZpkYArJlPVMsmosyw7K-1" source="FZpkYArJlPVMsmosyw7K-66" target="FZpkYArJlPVMsmosyw7K-64">
          <mxGeometry relative="1" as="geometry" />
        </mxCell>
        <mxCell id="FZpkYArJlPVMsmosyw7K-66" value="CHOOSE PROPER PAWN TO MOVE&amp;nbsp;" style="rounded=0;whiteSpace=wrap;html=1;" vertex="1" parent="FZpkYArJlPVMsmosyw7K-1">
          <mxGeometry x="780" y="1740" width="120" height="60" as="geometry" />
        </mxCell>
        <mxCell id="FZpkYArJlPVMsmosyw7K-67" value="HAVE A NUMBER IN MEMORY?" style="rhombus;whiteSpace=wrap;html=1;" vertex="1" parent="FZpkYArJlPVMsmosyw7K-1">
          <mxGeometry x="590" y="1700" width="100" height="110" as="geometry" />
        </mxCell>
        <mxCell id="FZpkYArJlPVMsmosyw7K-71" value="" style="endArrow=classic;html=1;exitX=0.5;exitY=1;exitDx=0;exitDy=0;" edge="1" parent="FZpkYArJlPVMsmosyw7K-1" source="FZpkYArJlPVMsmosyw7K-67" target="FZpkYArJlPVMsmosyw7K-55">
          <mxGeometry relative="1" as="geometry">
            <mxPoint x="780" y="1700" as="sourcePoint" />
            <mxPoint x="880" y="1700" as="targetPoint" />
          </mxGeometry>
        </mxCell>
        <mxCell id="FZpkYArJlPVMsmosyw7K-72" value="NO" style="edgeLabel;resizable=0;html=1;align=center;verticalAlign=middle;" connectable="0" vertex="1" parent="FZpkYArJlPVMsmosyw7K-71">
          <mxGeometry relative="1" as="geometry" />
        </mxCell>
        <mxCell id="FZpkYArJlPVMsmosyw7K-74" value="" style="endArrow=classic;html=1;exitX=1;exitY=0.5;exitDx=0;exitDy=0;entryX=-0.01;entryY=0.394;entryDx=0;entryDy=0;entryPerimeter=0;rounded=0;" edge="1" parent="FZpkYArJlPVMsmosyw7K-1" source="FZpkYArJlPVMsmosyw7K-55" target="FZpkYArJlPVMsmosyw7K-66">
          <mxGeometry relative="1" as="geometry">
            <mxPoint x="780" y="1700" as="sourcePoint" />
            <mxPoint x="880" y="1700" as="targetPoint" />
            <Array as="points">
              <mxPoint x="750" y="1910" />
              <mxPoint x="750" y="1764" />
            </Array>
          </mxGeometry>
        </mxCell>
        <mxCell id="FZpkYArJlPVMsmosyw7K-75" value="YES" style="edgeLabel;resizable=0;html=1;align=center;verticalAlign=middle;" connectable="0" vertex="1" parent="FZpkYArJlPVMsmosyw7K-74">
          <mxGeometry relative="1" as="geometry" />
        </mxCell>
        <mxCell id="FZpkYArJlPVMsmosyw7K-77" value="" style="endArrow=classic;html=1;" edge="1" parent="FZpkYArJlPVMsmosyw7K-1" source="FZpkYArJlPVMsmosyw7K-67">
          <mxGeometry relative="1" as="geometry">
            <mxPoint x="690" y="1755" as="sourcePoint" />
            <mxPoint x="780" y="1755" as="targetPoint" />
          </mxGeometry>
        </mxCell>
        <mxCell id="FZpkYArJlPVMsmosyw7K-78" value="YES" style="edgeLabel;resizable=0;html=1;align=center;verticalAlign=middle;" connectable="0" vertex="1" parent="FZpkYArJlPVMsmosyw7K-77">
          <mxGeometry relative="1" as="geometry" />
        </mxCell>
        <mxCell id="FZpkYArJlPVMsmosyw7K-81" value="ANY COLLISION?" style="rhombus;whiteSpace=wrap;html=1;" vertex="1" parent="FZpkYArJlPVMsmosyw7K-1">
          <mxGeometry x="975" y="1870" width="110" height="110" as="geometry" />
        </mxCell>
        <mxCell id="FZpkYArJlPVMsmosyw7K-86" value="DO YOU ENTER FINISH FIELD WITH YOUR FOURTH PAWN?" style="rhombus;whiteSpace=wrap;html=1;" vertex="1" parent="FZpkYArJlPVMsmosyw7K-1">
          <mxGeometry x="945" y="2030" width="170" height="190" as="geometry" />
        </mxCell>
        <mxCell id="FZpkYArJlPVMsmosyw7K-88" value="" style="endArrow=classic;html=1;exitX=0.5;exitY=1;exitDx=0;exitDy=0;" edge="1" parent="FZpkYArJlPVMsmosyw7K-1" source="FZpkYArJlPVMsmosyw7K-86">
          <mxGeometry relative="1" as="geometry">
            <mxPoint x="1000" y="2290" as="sourcePoint" />
            <mxPoint x="1030" y="2320" as="targetPoint" />
          </mxGeometry>
        </mxCell>
        <mxCell id="FZpkYArJlPVMsmosyw7K-89" value="YES" style="edgeLabel;resizable=0;html=1;align=center;verticalAlign=middle;" connectable="0" vertex="1" parent="FZpkYArJlPVMsmosyw7K-88">
          <mxGeometry relative="1" as="geometry" />
        </mxCell>
        <mxCell id="FZpkYArJlPVMsmosyw7K-90" value="" style="ellipse;html=1;shape=endState;fillColor=#000000;strokeColor=#ff0000;" vertex="1" parent="FZpkYArJlPVMsmosyw7K-1">
          <mxGeometry x="1015" y="2320" width="30" height="30" as="geometry" />
        </mxCell>
        <mxCell id="FZpkYArJlPVMsmosyw7K-91" value="" style="endArrow=classic;html=1;exitX=0.5;exitY=1;exitDx=0;exitDy=0;entryX=0.5;entryY=0;entryDx=0;entryDy=0;" edge="1" parent="FZpkYArJlPVMsmosyw7K-1" source="FZpkYArJlPVMsmosyw7K-81" target="FZpkYArJlPVMsmosyw7K-86">
          <mxGeometry relative="1" as="geometry">
            <mxPoint x="1060" y="2010" as="sourcePoint" />
            <mxPoint x="1160" y="2010" as="targetPoint" />
          </mxGeometry>
        </mxCell>
        <mxCell id="FZpkYArJlPVMsmosyw7K-92" value="NO" style="edgeLabel;resizable=0;html=1;align=center;verticalAlign=middle;" connectable="0" vertex="1" parent="FZpkYArJlPVMsmosyw7K-91">
          <mxGeometry relative="1" as="geometry" />
        </mxCell>
        <mxCell id="FZpkYArJlPVMsmosyw7K-93" value="" style="endArrow=classic;html=1;exitX=1;exitY=0.5;exitDx=0;exitDy=0;entryX=1;entryY=0.5;entryDx=0;entryDy=0;rounded=0;" edge="1" parent="FZpkYArJlPVMsmosyw7K-1" source="FZpkYArJlPVMsmosyw7K-86" target="FZpkYArJlPVMsmosyw7K-44">
          <mxGeometry relative="1" as="geometry">
            <mxPoint x="1170" y="1820" as="sourcePoint" />
            <mxPoint x="1270" y="1820" as="targetPoint" />
            <Array as="points">
              <mxPoint x="1200" y="2125" />
              <mxPoint x="1200" y="1440" />
            </Array>
          </mxGeometry>
        </mxCell>
        <mxCell id="FZpkYArJlPVMsmosyw7K-94" value="NO" style="edgeLabel;resizable=0;html=1;align=center;verticalAlign=middle;" connectable="0" vertex="1" parent="FZpkYArJlPVMsmosyw7K-93">
          <mxGeometry relative="1" as="geometry" />
        </mxCell>
        <mxCell id="FZpkYArJlPVMsmosyw7K-98" style="edgeStyle=orthogonalEdgeStyle;rounded=0;orthogonalLoop=1;jettySize=auto;html=1;entryX=0;entryY=0.25;entryDx=0;entryDy=0;" edge="1" parent="FZpkYArJlPVMsmosyw7K-1" source="FZpkYArJlPVMsmosyw7K-95" target="FZpkYArJlPVMsmosyw7K-44">
          <mxGeometry relative="1" as="geometry">
            <Array as="points">
              <mxPoint x="440" y="2070" />
              <mxPoint x="440" y="1425" />
            </Array>
          </mxGeometry>
        </mxCell>
        <mxCell id="FZpkYArJlPVMsmosyw7K-95" value="MOVE STANDING&amp;nbsp; PAWN TO HIS START FIELD" style="rounded=0;whiteSpace=wrap;html=1;" vertex="1" parent="FZpkYArJlPVMsmosyw7K-1">
          <mxGeometry x="730" y="2040" width="120" height="60" as="geometry" />
        </mxCell>
        <mxCell id="FZpkYArJlPVMsmosyw7K-96" value="" style="endArrow=classic;html=1;exitX=0;exitY=0.5;exitDx=0;exitDy=0;entryX=0.5;entryY=0;entryDx=0;entryDy=0;rounded=0;" edge="1" parent="FZpkYArJlPVMsmosyw7K-1" source="FZpkYArJlPVMsmosyw7K-81" target="FZpkYArJlPVMsmosyw7K-95">
          <mxGeometry relative="1" as="geometry">
            <mxPoint x="750" y="1890" as="sourcePoint" />
            <mxPoint x="790" y="1920" as="targetPoint" />
            <Array as="points">
              <mxPoint x="790" y="1925" />
            </Array>
          </mxGeometry>
        </mxCell>
        <mxCell id="FZpkYArJlPVMsmosyw7K-97" value="YES" style="edgeLabel;resizable=0;html=1;align=center;verticalAlign=middle;" connectable="0" vertex="1" parent="FZpkYArJlPVMsmosyw7K-96">
          <mxGeometry relative="1" as="geometry" />
        </mxCell>
      </root>
    </mxGraphModel>
  </diagram>
</mxfile>
